<svg viewBox="0 0 559 612" version="1.1" xmlns="http://www.w3.org/2000/svg" desc="Created with imagetracer.js version 1.2.6" ><path fill="rgb(245,245,244)" stroke="rgb(245,245,244)" stroke-width="1" opacity="1" d="M 279 23 Q 282.7 21.6 281 27.5 L 284 40.5 L 285.5 42 L 303.5 42 L 304.5 43 L 311.5 43 L 339.5 48 Q 364.9 54.1 386.5 64 Q 437.1 87.4 472 126.5 Q 506.2 163.3 525 215.5 L 533 243.5 L 537 264.5 L 538 286.5 L 539 287.5 L 539 315.5 L 538 316.5 L 537 337.5 L 533 359.5 Q 526.5 386.5 516 409.5 Q 493.4 458.9 455.5 493 Q 423.3 523.3 379.5 542 Q 359.1 550.6 335.5 556 L 312.5 560 L 304.5 560 L 303.5 561 L 287 561 L 281 583.5 L 281 589 Q 277.3 590.4 279 584.5 L 273 561 L 256.5 561 L 255.5 560 L 247.5 560 L 224.5 556 L 193.5 547 L 171.5 538 Q 120.2 513.8 85 473.5 Q 49.3 433.2 31 375.5 L 24 344.5 L 23 330.5 L 22 329.5 L 22 319.5 L 21 318.5 L 21 280.5 L 22 279.5 L 22 271.5 L 23 270.5 L 25 251.5 L 32 223.5 Q 40.1 198.1 52 176.5 Q 74.8 135.8 108.5 106 Q 143.1 75.1 190.5 57 Q 208.6 50.1 229.5 46 L 248.5 44 L 249.5 43 L 257.5 43 L 258.5 42 L 274.5 42 L 276 40.5 L 279 23 Z M 262 55 L 261 56 L 251 56 L 243 58 L 237 58 L 212 64 L 175 78 Q 137 96 110 123 Q 76 155 55 201 L 43 234 L 39 250 L 36 273 L 35 274 L 35 285 L 34 286 L 34 316 L 35 317 L 35 327 L 36 328 L 37 342 L 42 366 L 49 388 Q 66 433 96 466 Q 125 498 165 520 L 191 532 L 215 540 L 232 544 L 250 546 L 251 547 L 260 547 L 261 548 L 267 548 L 262 539 L 248 531 L 185 511 L 182 512 L 205 528 L 205 530 L 148 500 L 149 497 L 148 492 L 134 472 L 132 468 L 160 490 L 161 490 L 157 484 L 156 481 Q 178 498 206 509 L 207 509 L 172 487 L 157 476 L 161 466 L 157 467 L 160 454 L 161 443 L 162 442 L 162 433 L 163 432 L 164 382 L 165 381 L 164 378 L 164 368 L 165 367 Q 167 361 164 360 L 165 356 L 167 362 L 171 380 L 172 377 L 173 360 L 174 359 L 174 347 L 175 346 L 175 335 L 176 334 L 176 324 L 177 323 L 178 314 L 178 330 L 179 331 L 179 367 L 180 368 L 180 394 L 182 394 Q 182 382 186 373 L 236 333 Q 248 323 256 309 L 256 304 L 247 290 L 232 275 L 191 243 L 185 237 L 182 223 Q 184 216 180 217 L 179 282 L 178 283 L 178 296 L 176 289 L 173 244 L 171 232 L 166 251 Q 168 256 164 255 L 164 195 L 163 194 L 163 181 L 162 180 L 161 163 L 157 145 L 161 145 L 157 136 L 169 127 Q 172 128 170 124 L 173 124 L 206 104 L 206 103 Q 173 116 147 135 L 145 135 L 156 122 L 164 113 L 134 132 L 131 134 L 149 110 L 148 106 L 155 101 L 202 82 L 209 78 L 210 79 L 183 97 L 182 99 Q 225 90 261 74 L 270 58 L 270 55 L 262 55 Z M 289 55 L 297 72 L 304 76 L 321 83 L 376 99 L 378 99 L 351 80 L 350 78 L 399 98 L 412 106 L 411 109 L 412 113 L 425 130 L 429 134 L 399 114 L 397 115 L 409 129 L 415 135 L 382 115 L 354 102 L 352 103 L 387 124 L 390 124 L 391 128 L 403 136 L 400 142 L 400 145 L 403 146 L 398 170 L 397 189 L 396 190 L 396 208 L 395 209 L 395 254 L 396 255 L 394 255 Q 394 242 389 232 L 386 262 L 385 263 L 384 285 L 383 286 L 383 294 L 381 294 L 381 259 L 380 258 L 380 218 L 378 217 L 375 238 L 323 280 Q 310 290 303 306 L 311 320 L 326 334 L 370 368 L 375 374 L 379 394 L 380 393 L 381 319 L 383 315 L 384 336 L 385 337 L 386 360 L 387 361 L 388 377 L 390 379 L 395 356 L 395 394 L 396 395 L 397 432 L 398 433 L 400 455 L 403 465 L 403 467 L 399 466 L 403 476 L 392 483 L 390 487 L 386 488 L 359 505 L 358 507 L 375 500 L 403 483 L 404 483 L 403 485 L 400 489 Q 415 480 428 468 L 429 469 L 411 493 L 412 500 L 358 528 L 356 529 L 376 514 L 378 511 L 339 522 L 300 537 L 294 547 L 294 548 L 310 547 L 311 546 L 334 543 Q 359 537 382 527 L 413 510 L 445 485 Q 483 451 505 402 L 519 361 L 524 335 L 525 313 L 526 312 L 526 290 L 525 289 L 525 277 L 524 276 L 523 262 L 512 219 Q 495 172 465 139 Q 430 98 379 75 L 349 64 L 333 60 L 310 56 L 289 55 Z M 280 79 Q 262 98 239 111 L 237 111 Q 245 104 249 94 L 250 92 L 232 106 Q 216 119 205 137 L 198 153 L 194 172 L 195 195 L 202 217 L 213 235 L 238 262 L 245 267 L 262 288 L 270 305 L 269 311 L 258 330 Q 231 355 208 384 L 199 402 L 194 423 L 195 448 L 200 465 Q 208 482 220 495 L 245 515 L 250 520 Q 246 509 238 502 L 239 500 L 266 519 L 280 533 Q 297 515 320 502 L 321 502 L 311 518 L 332 503 Q 346 490 356 473 L 362 459 L 366 439 L 366 426 L 365 425 L 364 413 Q 360 397 353 386 Q 332 357 305 334 Q 296 322 290 308 Q 294 291 304 280 L 341 242 L 352 228 Q 359 217 363 203 L 366 186 L 366 173 L 363 157 Q 357 137 346 124 Q 332 107 313 94 L 311 94 L 321 110 L 322 111 Q 298 98 280 79 Z M 311 92 L 311 93 L 311 92 Z M 181 99 L 181 100 L 181 99 Z M 349 100 L 349 101 L 349 100 Z M 209 101 L 209 102 L 210 102 L 209 101 Z M 351 101 L 351 102 L 351 101 Z M 207 102 L 207 103 L 208 103 L 207 102 Z M 343 110 L 343 111 L 343 110 Z M 216 111 L 216 112 L 216 111 Z M 344 111 Q 354 121 363 136 L 370 152 L 374 172 L 373 194 L 366 218 Q 357 238 342 252 L 344 252 L 365 230 Q 373 216 377 197 L 379 209 L 379 191 L 380 190 L 379 188 L 379 150 L 380 149 L 378 142 L 370 132 Q 359 119 344 111 Z M 214 112 L 200 122 Q 188 132 180 145 L 180 200 L 182 208 L 184 198 Q 187 216 195 230 L 219 254 L 220 254 Q 203 238 193 216 L 188 200 L 187 187 L 186 186 L 187 165 L 193 143 Q 201 125 215 113 L 214 112 Z M 342 252 L 342 253 L 342 252 Z M 341 253 L 341 254 L 341 253 Z M 221 254 L 221 255 L 221 254 Z M 340 254 L 340 255 L 340 254 Z M 339 255 L 339 256 L 339 255 Z M 340 356 L 340 357 L 340 356 Z M 220 357 L 220 358 L 220 357 Z M 341 357 L 341 358 L 341 357 Z M 219 358 L 219 359 L 219 358 Z M 342 358 L 342 359 L 342 358 Z M 218 359 L 218 360 L 218 359 Z M 343 359 L 343 360 L 343 359 Z M 216 360 L 195 382 Q 187 395 184 413 L 182 403 L 181 414 L 180 415 L 180 467 L 190 480 Q 200 491 214 499 L 215 499 Q 202 487 194 471 L 189 457 L 186 441 L 187 418 L 192 399 Q 201 376 217 361 L 216 360 Z M 344 360 L 357 378 L 365 392 L 371 409 L 374 425 L 373 448 L 368 466 Q 361 481 351 493 L 346 499 L 361 489 L 378 470 Q 381 466 379 459 L 380 458 L 380 412 L 379 403 L 377 414 Q 373 391 361 377 L 344 360 Z M 216 499 L 216 500 L 216 499 Z M 344 499 L 344 500 L 345 500 L 344 499 Z M 217 500 L 217 501 L 218 501 L 217 500 Z M 356 507 L 356 508 L 357 508 L 356 507 Z M 354 508 L 354 509 L 355 509 L 354 508 Z M 208 509 L 208 510 L 209 510 L 208 509 Z M 352 509 L 352 510 L 353 510 L 352 509 Z M 211 510 L 211 511 L 211 510 Z M 350 510 L 350 511 L 350 510 Z M 311 518 L 311 519 L 311 518 Z " /><path fill="rgb(245,245,244)" stroke="rgb(245,245,244)" stroke-width="1" opacity="1" d="M 329.5 196 L 345.5 197 L 357 201.5 Q 354.1 209.6 347.5 214 L 341.5 217 L 329.5 220 L 310.5 220 L 287.5 215 L 277 210.5 L 278.5 209 L 329.5 196 Z " /><path fill="rgb(245,245,244)" stroke="rgb(245,245,244)" stroke-width="1" opacity="1" d="M 209.5 198 L 223.5 198 L 231.5 200 L 268.5 214 L 291.5 221 L 302.5 223 L 319.5 224 L 320.5 223 L 335.5 222 L 348.5 218 L 348 219.5 L 346 224.5 L 334 240.5 L 301 273.5 L 292 285.5 L 286 298.5 L 283 317.5 Q 285.5 319 282 320.5 L 284 325.5 L 281 327 L 283 331.5 L 279 334.5 L 283 339.5 L 283 342 L 280 342 L 280 338 Q 277.3 339.1 278 336.5 L 276 332.5 L 279 331 L 279 327 Q 274.9 328.7 276 324.5 L 275 319 L 279 318 L 277.5 315 L 275 313.5 L 274 299.5 L 267 284.5 L 256 270.5 L 222 236.5 L 215 227.5 Q 206.2 216.5 204 200 L 209.5 198 Z M 221 217 Q 220 222 224 220 Q 226 216 221 217 Z M 258 230 L 258 233 L 261 232 Q 262 228 258 230 Z M 312 236 Q 311 241 315 239 Q 317 235 312 236 Z M 241 237 L 243 241 L 244 239 L 241 237 Z M 280 238 L 278 241 Q 280 244 281 241 L 280 238 Z M 251 248 L 251 250 Q 253 253 254 250 Q 255 246 251 248 Z M 305 257 L 303 261 L 306 260 L 305 257 Z M 265 258 L 263 261 Q 265 264 266 261 L 265 258 Z M 271 275 L 271 277 L 274 278 Q 276 274 271 275 Z M 279 285 Q 276 287 279 288 L 281 287 L 279 285 Z M 280 299 L 278 302 L 282 301 L 280 299 Z M 280 308 L 278 311 Q 280 314 281 311 L 280 308 Z M 281 321 L 280 324 L 281 324 L 281 321 Z " /><path fill="rgb(245,245,244)" stroke="rgb(245,245,244)" stroke-width="1" opacity="1" d="M 276.5 342 L 279 343 L 277.5 347 L 275 345.5 L 276.5 342 Z " /><path fill="rgb(245,245,244)" stroke="rgb(245,245,244)" stroke-width="1" opacity="1" d="M 281.5 348 Q 284.1 347.2 283 350.5 L 283 352.5 L 281.5 355 L 279 353.5 L 281 350.5 Q 278.8 349.3 281.5 348 Z " /><path fill="rgb(245,245,244)" stroke="rgb(245,245,244)" stroke-width="1" opacity="1" d="M 274.5 354 L 277 355.5 Q 278.2 360.1 273 358 L 274.5 354 Z " /><path fill="rgb(245,245,244)" stroke="rgb(245,245,244)" stroke-width="1" opacity="1" d="M 279 360 L 283 361.5 L 281.5 364 Q 276.9 365.2 279 360 Z " /><path fill="rgb(245,245,244)" stroke="rgb(245,245,244)" stroke-width="1" opacity="1" d="M 285.5 367 Q 289.7 365.9 288 370 L 284 368.5 L 285.5 367 Z " /><path fill="rgb(245,245,244)" stroke="rgb(245,245,244)" stroke-width="1" opacity="1" d="M 275 368 L 279 369.5 L 277.5 372 L 275 370.5 L 275 368 Z " /><path fill="rgb(245,245,244)" stroke="rgb(245,245,244)" stroke-width="1" opacity="1" d="M 281 374 Q 285.5 372.5 284 377 Q 279.5 378.5 281 374 Z " /><path fill="rgb(245,245,244)" stroke="rgb(245,245,244)" stroke-width="1" opacity="1" d="M 274 376 Q 278.9 374.4 277 380 L 274 378.5 L 274 376 Z " /><path fill="rgb(245,245,244)" stroke="rgb(245,245,244)" stroke-width="1" opacity="1" d="M 288.5 378 Q 293.1 376.8 291 382 Q 287.2 383.5 288 380.5 Q 285.8 379.3 288.5 378 Z " /><path fill="rgb(245,245,244)" stroke="rgb(245,245,244)" stroke-width="1" opacity="1" d="M 279.5 382 L 282 383.5 L 280.5 386 L 278 384.5 L 279.5 382 Z " /><path fill="rgb(245,245,244)" stroke="rgb(245,245,244)" stroke-width="1" opacity="1" d="M 266 383 Q 270.9 381.4 269 387 L 266 385.5 L 266 383 Z " /><path fill="rgb(245,245,244)" stroke="rgb(245,245,244)" stroke-width="1" opacity="1" d="M 264 390 L 267 391.5 Q 268.3 395.3 264.5 394 Q 261.8 392.8 264 391.5 L 264 390 Z " /><path fill="rgb(245,245,244)" stroke="rgb(245,245,244)" stroke-width="1" opacity="1" d="M 285 390 L 289 391.5 L 286.5 393 L 285 390 Z " /><path fill="rgb(245,245,244)" stroke="rgb(245,245,244)" stroke-width="1" opacity="1" d="M 295 391 Q 300.2 388.9 299 393.5 L 296.5 395 L 295 391 Z " /><path fill="rgb(245,245,244)" stroke="rgb(245,245,244)" stroke-width="1" opacity="1" d="M 276.5 392 Q 280.3 390.8 279 394.5 L 276 396 L 275 393.5 L 276.5 392 Z " /><path fill="rgb(245,245,244)" stroke="rgb(245,245,244)" stroke-width="1" opacity="1" d="M 257.5 397 L 259 401 Q 254.9 402.7 256 398.5 L 257.5 397 Z " /><path fill="rgb(245,245,244)" stroke="rgb(245,245,244)" stroke-width="1" opacity="1" d="M 283.5 398 L 286 399.5 L 283.5 403 L 282 399.5 L 283.5 398 Z " /><path fill="rgb(245,245,244)" stroke="rgb(245,245,244)" stroke-width="1" opacity="1" d="M 265.5 399 L 268 400.5 L 266.5 403 Q 262.8 404.3 264 400.5 L 265.5 399 Z " /><path fill="rgb(245,245,244)" stroke="rgb(245,245,244)" stroke-width="1" opacity="1" d="M 291.5 401 Q 295.3 399.8 294 403.5 Q 292 407 290 402.5 L 291.5 401 Z " /><path fill="rgb(245,245,244)" stroke="rgb(245,245,244)" stroke-width="1" opacity="1" d="M 301.5 405 L 304 406.5 L 302.5 409 L 300 407.5 L 301.5 405 Z " /><path fill="rgb(245,245,244)" stroke="rgb(245,245,244)" stroke-width="1" opacity="1" d="M 249.5 406 L 251 406 L 251 410 L 248 408.5 L 249.5 406 Z " /><path fill="rgb(245,245,244)" stroke="rgb(245,245,244)" stroke-width="1" opacity="1" d="M 276.5 406 Q 281 408 277.5 410 Q 273.8 411.3 275 407.5 L 276.5 406 Z " /><path fill="rgb(245,245,244)" stroke="rgb(245,245,244)" stroke-width="1" opacity="1" d="M 259.5 409 L 261 413 Q 256.9 414.7 258 410.5 L 259.5 409 Z " /><path fill="rgb(245,245,244)" stroke="rgb(245,245,244)" stroke-width="1" opacity="1" d="M 268.5 409 L 271 410.5 Q 272.3 414.3 268.5 413 L 267 410.5 L 268.5 409 Z " /><path fill="rgb(245,245,244)" stroke="rgb(245,245,244)" stroke-width="1" opacity="1" d="M 291.5 409 Q 296 411 292.5 413 Q 288.8 414.3 290 410.5 L 291.5 409 Z " /><path fill="rgb(245,245,244)" stroke="rgb(245,245,244)" stroke-width="1" opacity="1" d="M 282 415 L 286 416.5 Q 284 421 282 417.5 L 282 415 Z " /><path fill="rgb(245,245,244)" stroke="rgb(245,245,244)" stroke-width="1" opacity="1" d="M 252 418 L 256 419.5 L 256 421 L 252 421 L 252 418 Z " /><path fill="rgb(245,245,244)" stroke="rgb(245,245,244)" stroke-width="1" opacity="1" d="M 295 418 L 299 419.5 L 297.5 422 L 295 420.5 L 295 418 Z " /><path fill="rgb(245,245,244)" stroke="rgb(245,245,244)" stroke-width="1" opacity="1" d="M 262.5 420 L 265 421.5 L 263.5 424 L 261 422.5 L 262.5 420 Z " /><path fill="rgb(245,245,244)" stroke="rgb(245,245,244)" stroke-width="1" opacity="1" d="M 309.5 423 Q 312.8 421.9 312 424.5 L 309.5 426 Q 306.5 424.5 309.5 423 Z " /><path fill="rgb(245,245,244)" stroke="rgb(245,245,244)" stroke-width="1" opacity="1" d="M 275.5 424 L 283.5 424 L 292.5 428 L 315.5 445 Q 330.8 455.7 350.5 462 L 353 464.5 Q 347.4 476.4 338.5 485 L 330.5 490 L 320.5 492 L 240.5 492 L 239.5 491 L 231.5 491 L 226.5 489 L 216 479.5 L 208 466.5 L 208 463 Q 225 458.2 239.5 450 Q 252.7 442.2 262.5 431 L 275.5 424 Z M 269 434 L 265 437 L 261 442 Q 247 456 226 463 L 226 464 Q 246 462 259 451 L 270 435 L 269 434 Z M 266 457 Q 263 459 266 460 Q 269 461 268 459 L 266 457 Z M 319 462 L 317 465 Q 319 468 320 465 L 319 462 Z M 332 463 L 334 467 Q 336 468 335 465 L 332 463 Z M 225 464 L 225 465 L 225 464 Z M 246 468 Q 245 473 249 471 Q 251 467 246 468 Z M 280 473 Q 277 475 280 476 L 282 475 Q 283 472 280 473 Z M 326 473 L 326 476 L 329 475 L 326 473 Z M 301 474 Q 300 477 304 476 Q 305 473 301 474 Z " /><path fill="rgb(245,245,244)" stroke="rgb(245,245,244)" stroke-width="1" opacity="1" d="M 248 427 L 251 428.5 L 249.5 431 L 248 431 L 248 427 Z " /></svg>